<?xml version="1.0" encoding="UTF-8" standalone="no"?>
<!-- Created with Inkscape (http://www.inkscape.org/) -->

<svg
   xmlns:dc="http://purl.org/dc/elements/1.1/"
   xmlns:cc="http://creativecommons.org/ns#"
   xmlns:rdf="http://www.w3.org/1999/02/22-rdf-syntax-ns#"
   xmlns:svg="http://www.w3.org/2000/svg"
   xmlns="http://www.w3.org/2000/svg"
   xmlns:sodipodi="http://sodipodi.sourceforge.net/DTD/sodipodi-0.dtd"
   xmlns:inkscape="http://www.inkscape.org/namespaces/inkscape"
   width="137.28685mm"
   height="14.83779mm"
   viewBox="0 0 137.28685 14.83779"
   version="1.1"
   id="svg8"
   inkscape:version="0.92.0 r15299"
   sodipodi:docname="active campaign.svg">
  <defs
     id="defs2">
	

		
		
		
		
		
		
		
		
		
		
		
		
		
		
		
		
		
		
	</defs>
  <sodipodi:namedview
     id="base"
     pagecolor="#ffffff"
     bordercolor="#666666"
     borderopacity="1.0"
     inkscape:pageopacity="0.0"
     inkscape:pageshadow="2"
     inkscape:zoom="1.7414095"
     inkscape:cx="257.54995"
     inkscape:cy="26.150089"
     inkscape:document-units="mm"
     inkscape:current-layer="layer1"
     showgrid="false"
     fit-margin-top="0"
     fit-margin-left="0"
     fit-margin-right="0"
     fit-margin-bottom="0"
     inkscape:window-width="1280"
     inkscape:window-height="744"
     inkscape:window-x="-4"
     inkscape:window-y="-4"
     inkscape:window-maximized="1" />
  <metadata
     id="metadata5">
    <rdf:RDF>
      <cc:Work
         rdf:about="">
        <dc:format>image/svg+xml</dc:format>
        <dc:type
           rdf:resource="http://purl.org/dc/dcmitype/StillImage" />
        <dc:title></dc:title>
      </cc:Work>
    </rdf:RDF>
  </metadata>
  <g
     inkscape:label="Layer 1"
     inkscape:groupmode="layer"
     id="layer1"
     transform="translate(-188.88038,-325.3668)">
    <g
       id="g133"
       transform="translate(0.49999999,-0.50000116)">
      <path
         style="fill:#356ae6;stroke-width:0.26458332"
         inkscape:connector-curvature="0"
         class="st0"
         d="m 291.11537,326.49915 h -0.92604 v 0.92604 c 0,0.23813 0.10583,0.52917 0.58208,0.52917 h 0.92604 v -0.92604 c 0,-0.21167 -0.0794,-0.52917 -0.58208,-0.52917 z"
         id="path12" />
      <path
         style="fill:#356ae6;stroke-width:0.26458332"
         inkscape:connector-curvature="0"
         class="st0"
         d="m 291.03599,329.48894 h -0.74083 v 7.64646 c 0,0.3175 0.21167,0.52917 0.50271,0.55562 v 0.0265 h 0.84666 v -7.67291 c -0.0264,-0.34396 -0.21166,-0.55563 -0.60854,-0.55563 z"
         id="path14" />
      <path
         style="fill:#356ae6;stroke-width:0.26458332"
         inkscape:connector-curvature="0"
         class="st0"
         d="m 246.21558,335.46852 c -0.3175,-0.3175 -0.71438,-0.23812 -0.9525,-0.0265 -0.97896,0.8202 -1.87855,1.1377 -3.04271,1.1377 -2.32834,0 -4.18042,-1.95791 -4.18042,-4.47145 0,-2.51355 1.79917,-4.445 4.18042,-4.445 1.13771,0 2.09021,0.34395 2.98979,1.11125 0.21167,0.1852 0.58208,0.26458 0.84667,-0.0265 0.23812,-0.23813 0.47625,-0.50271 0.47625,-0.50271 l 0.0529,-0.0529 -0.0529,-0.0529 c -0.9525,-0.92605 -2.14313,-1.77271 -4.31271,-1.77271 -3.14854,0 -5.58271,2.54 -5.58271,5.76791 0,3.25438 2.38125,5.715 5.55625,5.715 1.77271,0 3.06917,-0.58208 4.39208,-1.95791 l 0.0265,-0.0529 -0.0265,-0.0529 c 0,0.0529 -0.0794,-0.0529 -0.37041,-0.3175 z"
         id="path16" />
      <path
         style="fill:#356ae6;stroke-width:0.26458332"
         inkscape:connector-curvature="0"
         class="st0"
         d="m 266.32391,329.30373 c -1.16417,0 -2.09021,0.50271 -2.80458,1.50813 -0.3175,-0.635 -1.05834,-1.56104 -2.59292,-1.56104 -1.32292,0 -2.03729,0.68791 -2.56646,1.37583 v -0.58208 c 0,-0.39688 -0.23812,-0.635 -0.60854,-0.635 h -0.74083 v 8.22854 h 0.74083 c 0.37042,0 0.58208,-0.10584 0.58208,-0.55563 v -4.10104 c 0,-1.42875 0.92604,-2.48708 2.16959,-2.48708 1.27,0 2.01083,0.87312 2.01083,2.35479 v 4.23333 c 0,0.39688 0.21167,0.58209 0.58208,0.58209 h 0.74084 v -4.70959 c 0,-1.69333 1.08479,-2.43416 2.16958,-2.43416 1.29646,0 2.03729,0.87312 2.03729,2.35479 v 4.1275 c 0,0.34396 0.0794,0.66146 0.60854,0.66146 h 0.71438 v -5.05355 c 0.0265,-2.03729 -1.13771,-3.30729 -3.04271,-3.30729 z"
         id="path18" />
      <path
         style="fill:#356ae6;stroke-width:0.26458332"
         inkscape:connector-curvature="0"
         class="st0"
         d="m 275.87537,329.33019 c -1.21709,0 -2.2225,0.52917 -3.04271,1.66688 v -0.84667 c 0,-0.42333 -0.23813,-0.635 -0.66146,-0.635 h -0.66146 v 10.10708 c 0,0.39688 0.18521,0.58209 0.58209,0.58209 h 0.74083 v -3.91584 c 0.82021,1.05834 1.79917,1.5875 3.04271,1.5875 1.905,0 3.91583,-1.50812 3.91583,-4.28625 0,-2.77812 -2.01083,-4.25979 -3.91583,-4.25979 z m 2.54,4.25979 c 0,1.79917 -1.13771,3.04271 -2.77813,3.04271 -1.40229,0 -2.8575,-1.16417 -2.8575,-3.06917 0,-1.905 1.45521,-3.06916 2.8575,-3.06916 1.37584,0.0265 2.77813,1.08479 2.77813,3.09562 z"
         id="path20" />
      <path
         style="fill:#356ae6;stroke-width:0.26458332"
         inkscape:connector-curvature="0"
         class="st0"
         d="m 300.34933,330.07102 v 0.68792 c -0.55563,-0.71437 -1.53459,-1.50812 -3.09563,-1.50812 -0.97896,0 -1.95792,0.37041 -2.67229,1.03187 -0.76729,0.71438 -1.19063,1.74625 -1.19063,2.8575 0,2.51354 1.98438,3.86292 3.86292,3.86292 1.21708,0 2.24896,-0.50271 3.12208,-1.56104 v 0.79375 c 0,1.79916 -1.05833,2.83104 -2.8575,2.83104 -0.87312,0 -1.71979,-0.21167 -2.51354,-0.66146 -0.21166,-0.13229 -0.37041,-0.18521 -0.50271,-0.18521 -0.15875,0 -0.3175,0.0794 -0.42333,0.26458 -0.21167,0.34396 -0.29104,0.50271 -0.29104,0.50271 l -0.0265,0.0529 0.0529,0.0265 c 1.08479,0.76729 2.32833,1.13771 3.70416,1.13771 2.64584,0 4.18042,-1.45521 4.18042,-3.99521 v -6.74688 h -0.74083 c -0.23813,0 -0.60854,0.21167 -0.60854,0.60854 z m 0.0794,3.14855 c 0,1.69333 -1.48167,2.69875 -2.91042,2.69875 -1.56104,0 -2.7252,-1.16417 -2.7252,-2.69875 0,-1.56105 1.16416,-2.6723 2.7252,-2.6723 1.4023,-0.0265 2.91042,0.89959 2.91042,2.6723 z"
         id="path22" />
      <path
         style="fill:#356ae6;stroke-width:0.26458332"
         inkscape:connector-curvature="0"
         class="st0"
         d="m 307.94287,329.33019 c -1.16417,0 -2.06375,0.47625 -2.69875,1.42875 v -0.68792 c 0,-0.39687 -0.3175,-0.55562 -0.635,-0.55562 h -0.74084 v 8.22854 h 1.34938 l -0.0265,-4.70958 c 0,-1.45521 0.97896,-2.46063 2.38125,-2.46063 1.37583,0 2.16958,0.87313 2.16958,2.38125 v 4.23334 c 0,0.39687 0.18521,0.55562 0.52917,0.55562 h 0.79375 v -5.13292 c 0.0265,-2.01083 -1.19063,-3.28083 -3.12208,-3.28083 z"
         id="path24" />
      <path
         style="fill:#356ae6;stroke-width:0.26458332"
         inkscape:connector-curvature="0"
         class="st0"
         d="m 284.76537,329.35665 c -1.03188,0 -1.95792,0.21167 -2.96334,0.66146 l -0.0529,0.0265 0.0265,0.0529 c 0,0 0.13229,0.37042 0.23812,0.635 0.10583,0.26459 0.42333,0.29104 0.66146,0.18521 0.68792,-0.26458 1.29646,-0.39687 1.98437,-0.39687 1.50813,0 2.32834,0.76729 2.32834,2.14312 v 1.98438 c 0,1.24354 -1.11125,2.11666 -2.64584,2.11666 -0.9525,0 -1.98437,-0.47625 -1.98437,-1.53458 0,-1.00542 0.82021,-1.56104 2.30187,-1.56104 h 0.66146 c 0.39688,0 0.58209,-0.18521 0.58209,-0.55563 v -0.44979 h -1.37584 c -2.24896,0 -3.51896,0.9525 -3.51896,2.59292 0,1.24354 0.9525,2.61937 3.09563,2.61937 1.16417,0 2.14312,-0.44979 2.8575,-1.29646 v 0.55563 c 0,0.37042 0.18521,0.52917 0.58208,0.52917 h 0.74084 v -5.02709 c -0.0265,-2.09021 -1.27,-3.28083 -3.51896,-3.28083 z"
         id="path26" />
      <path
         style="fill:#356ae6;stroke-width:0.26458332"
         inkscape:connector-curvature="0"
         class="st0"
         d="m 251.45433,329.35665 c -1.27,0 -2.16959,0.3175 -2.96334,0.66146 l -0.0529,0.0529 0.0264,0.0529 c 0,0 0.1323,0.37042 0.23813,0.635 0.10583,0.26458 0.42333,0.29104 0.66146,0.18521 0.68791,-0.26458 1.29646,-0.39688 1.98437,-0.39688 1.50813,0 2.35479,0.7673 2.35479,2.14313 v 1.95792 c 0,1.24354 -1.11125,2.11666 -2.64583,2.11666 -0.9525,0 -1.95792,-0.47625 -1.95792,-1.53458 0,-1.00542 0.82021,-1.56104 2.27542,-1.56104 h 0.66146 c 0.39687,0 0.58208,-0.18521 0.58208,-0.55563 v -0.44979 h -1.34937 c -2.24896,0 -3.54542,0.9525 -3.54542,2.59292 0,1.24354 0.9525,2.61937 3.06917,2.61937 1.16416,0 2.14312,-0.44979 2.88396,-1.29646 v 0.55563 c 0,0.37042 0.1852,0.52917 0.55562,0.52917 h 0.74083 v -5.02709 c -0.0264,-2.09021 -1.27,-3.28083 -3.51895,-3.28083 z"
         id="path28" />
      <path
         style="fill:#356ae6;stroke-width:0.26458332"
         inkscape:connector-curvature="0"
         class="st0"
         d="m 324.69099,332.42582 c -0.18521,-0.15875 -7.72583,-5.42396 -8.06979,-5.63563 l -0.10583,-0.0794 v 1.29645 c 0,0.42334 0.21166,0.55563 0.47625,0.7673 l 0.0529,0.0265 c 0.37042,0.26459 5.74146,3.99521 6.45584,4.49792 -0.71438,0.50271 -6.1648,4.28625 -6.50875,4.49792 -0.42334,0.26458 -0.4498,0.44979 -0.4498,0.82021 v 1.24354 c 0,0 8.01688,-5.58271 8.17563,-5.715 v 0 c 0.37042,-0.26459 0.44979,-0.60854 0.44979,-0.82021 v -0.15875 c 0,-0.26458 -0.15875,-0.52917 -0.47625,-0.74083 z"
         id="path30" />
      <path
         style="fill:#356ae6;stroke-width:0.26458332"
         inkscape:connector-curvature="0"
         class="st0"
         d="m 319.98141,333.88102 c 0.21166,0 0.42333,-0.0794 0.635,-0.23812 0.26458,-0.18521 0.50271,-0.34396 0.50271,-0.34396 l 0.0794,-0.0529 -0.0794,-0.0529 c -0.0265,-0.0265 -3.54542,-2.46063 -3.91584,-2.69875 -0.15875,-0.13229 -0.37041,-0.15875 -0.50271,-0.0794 -0.13229,0.0794 -0.23812,0.21167 -0.23812,0.42334 v 0.8202 l 0.0265,0.0265 c 0.0265,0.0265 2.43416,1.69334 2.91041,2.01084 0.21167,0.13229 0.39688,0.1852 0.58209,0.1852 z"
         id="path32" />
      <path
         style="fill:#356ae6;stroke-width:0.26458332"
         inkscape:connector-curvature="0"
         class="st0"
         d="m 207.77162,335.81248 c -0.29104,-0.29104 -0.66146,-0.10583 -0.82021,0.0265 -0.60854,0.55563 -1.29646,0.82021 -2.03729,0.82021 -1.61396,0 -2.88396,-1.34938 -2.88396,-3.09563 0,-1.71979 1.24354,-3.06916 2.80458,-3.06916 0.89959,0 1.48167,0.39687 1.95792,0.76729 0.34396,0.29104 0.635,0.3175 0.87312,0.0529 0.21167,-0.21167 0.4498,-0.47625 0.4498,-0.47625 l 0.0529,-0.0529 -0.0529,-0.0529 c -0.92605,-1.00541 -1.95792,-1.45521 -3.28084,-1.45521 -2.35479,0 -4.23333,1.87855 -4.23333,4.28625 0,2.3548 1.905,4.28625 4.23333,4.28625 1.71979,0 2.69875,-0.87312 3.33375,-1.61395 h 0.0529 l -0.0529,-0.0529 c 0,0 -0.13229,-0.10583 -0.39687,-0.37042 z"
         id="path34" />
      <path
         style="fill:#356ae6;stroke-width:0.26458332"
         inkscape:connector-curvature="0"
         class="st0"
         d="m 216.55578,326.49915 h -0.92604 v 0.92604 c 0,0.23813 0.10584,0.52917 0.58209,0.52917 h 0.92604 v -0.82021 c 0.0265,-0.37042 -0.21167,-0.635 -0.58209,-0.635 z"
         id="path36" />
      <path
         style="fill:#356ae6;stroke-width:0.26458332"
         inkscape:connector-curvature="0"
         class="st0"
         d="m 216.44995,329.48894 h -0.76729 v 7.64646 c 0,0.3175 0.21167,0.52917 0.50271,0.55562 v 0.0265 h 0.84666 v -7.67291 c 0.0265,-0.34396 -0.1852,-0.55563 -0.58208,-0.55563 z"
         id="path38" />
      <path
         style="fill:#356ae6;stroke-width:0.26458332"
         inkscape:connector-curvature="0"
         class="st0"
         d="m 225.15474,329.93873 c -0.10583,0.29104 -2.11666,5.15938 -2.51354,6.05896 -0.37042,-0.92604 -2.38125,-5.79437 -2.48708,-6.05896 -0.13229,-0.3175 -0.39688,-0.50271 -0.74084,-0.50271 h -0.9525 l 0.0529,0.0794 c 0.0265,0.10583 3.22792,7.48771 3.36021,7.77875 0.13229,0.34396 0.34396,0.42333 0.68792,0.42333 h 0.15875 c 0.3175,0 0.52916,-0.13229 0.66145,-0.42333 0.1323,-0.29104 3.33375,-7.62 3.36021,-7.69938 l 0.0529,-0.10583 h -0.92604 c -0.34396,0 -0.58209,0.13229 -0.71438,0.44979 z"
         id="path40" />
      <path
         style="fill:#356ae6;stroke-width:0.26458332"
         inkscape:connector-curvature="0"
         class="st0"
         d="m 233.4362,333.11373 h -3.14854 c -0.34396,0 -0.55563,0.21167 -0.55563,0.55563 v 0.52916 h 0.0794 c 1.50812,-0.0264 3.25437,-0.0264 3.96875,-0.0264 0.42333,0 0.74083,-0.10584 0.97896,-0.34396 0.21166,-0.23813 0.3175,-0.60854 0.29104,-1.03188 -0.23813,-2.11666 -1.74625,-3.4925 -3.81,-3.4925 -2.24896,0 -3.96875,1.85209 -3.96875,4.28625 0,2.46063 1.77271,4.28625 4.1275,4.28625 1.37583,0 2.40771,-0.47625 3.38667,-1.53458 l 0.0529,-0.0529 -0.0529,-0.0529 c 0,0 -0.18521,-0.15875 -0.39688,-0.34396 -0.3175,-0.26459 -0.60854,-0.15875 -0.76729,0 -0.58208,0.52916 -1.29646,0.79375 -2.16958,0.79375 -1.50813,0 -2.61938,-1.08479 -2.80459,-2.69875 0,0 -0.0265,-0.18521 -0.0265,-0.42334 0,-0.26458 0.0265,-0.44979 0.0265,-0.44979 0.15875,-1.5875 1.21709,-2.69875 2.56646,-2.69875 1.34938,0 2.32833,0.89959 2.46063,2.27542 0.0265,0.13229 0,0.23812 -0.0265,0.29104 -0.0794,0.10583 -0.13229,0.13229 -0.21167,0.13229 z"
         id="path42" />
      <path
         style="fill:#356ae6;stroke-width:0.26458332"
         inkscape:connector-curvature="0"
         class="st0"
         d="m 195.38912,326.92248 v 0 c -0.15875,-0.3175 -0.34396,-0.42333 -0.68792,-0.42333 h -0.3175 c -0.26458,0 -0.50271,0.15875 -0.635,0.39687 -0.10583,0.23813 -4.7625,10.6098 -4.81542,10.71563 l -0.0529,0.10583 h 0.87312 c 0.37042,0 0.60854,-0.15875 0.79375,-0.52916 0.15875,-0.3175 0.92604,-2.06375 1.05834,-2.3548 h 3.41312 c 0.42333,0 0.68792,-0.26458 0.68792,-0.66145 v -0.58209 h -3.57188 l 2.40771,-5.3975 c 0.50271,1.11125 3.86292,8.78417 4.02167,9.10167 0.21166,0.42333 0.71437,0.42333 0.87312,0.42333 h 0.79375 l -0.0529,-0.10583 c 0,-0.10583 -4.63021,-10.34521 -4.78896,-10.68917 z"
         id="path44" />
      <path
         style="fill:#356ae6;stroke-width:0.26458332"
         inkscape:connector-curvature="0"
         class="st0"
         d="m 213.72474,336.52686 c -0.13229,-0.0794 -0.3175,-0.10584 -0.50271,-0.0529 -0.29104,0.0794 -0.5027,0.13229 -0.76729,0.13229 -0.84666,0 -1.29646,-0.42333 -1.29646,-1.29646 v -4.6302 h 2.56646 v -0.55563 c 0,-0.42333 -0.37041,-0.635 -0.68791,-0.635 h -1.905 v -2.32833 c 0,-0.37042 -0.26459,-0.635 -0.66146,-0.635 h -0.66146 v 8.96937 c 0,1.50813 0.82021,2.35479 2.35479,2.35479 0.58208,0 1.24354,-0.13229 1.66688,-0.34395 l 0.0265,-0.0265 v -0.0265 c 0,0 0.0265,-0.23813 0.0265,-0.52917 0.0265,-0.21166 -0.0794,-0.3175 -0.15875,-0.39687 z"
         id="path46" />
    </g>
  </g>
  <style
     id="style10"
     type="text/css">
	.st0{fill:#356AE6;}
</style>
</svg>
