<?xml version="1.0" encoding="UTF-8"?>
<svg id="Layer_1" xmlns="http://www.w3.org/2000/svg" xmlns:xlink="http://www.w3.org/1999/xlink" version="1.1" viewBox="0 0 731 195">
  <!-- Generator: Adobe Illustrator 29.5.1, SVG Export Plug-In . SVG Version: 2.1.0 Build 141)  -->
  <defs>
    <style>
      .st0 {
        fill: none;
      }

      .st1, .st2 {
        fill: #ff5721;
      }

      .st2 {
        fill-rule: evenodd;
      }

      .st3 {
        clip-path: url(#clippath-1);
      }

      .st4 {
        clip-path: url(#clippath);
      }
    </style>
    <clipPath id="clippath">
      <rect class="st0" x="3" y="50.3" width="580" height="55"/>
    </clipPath>
    <clipPath id="clippath-1">
      <rect class="st0" x="540" y=".3" width="194" height="194"/>
    </clipPath>
  </defs>
  <g class="st4">
    <g>
      <path class="st1" d="M36.4,91.2c-9.1,0-15.3-4.9-15.3-13.4s6.2-13.4,15.3-13.4,9.5,1.7,12.6,5.2c1,1.1,2.6,1.6,3.9.9l9.4-4.9c1.7-.9,2.3-3,1.1-4.4-5.2-6.3-14.9-10.8-26.8-10.8-20.1,0-33.6,9.9-33.6,27.5s13.5,27.5,32.9,27.5,22.3-4.5,27.6-10.9c1.2-1.4.6-3.6-1-4.4l-9.4-5c-1.3-.7-2.9-.2-3.9.9-3.3,3.7-7.6,5.3-12.9,5.3Z"/>
      <path class="st1" d="M120.2,52c-1.8,0-3.3,1.5-3.3,3.3v15.1h-26.9v-15.1c0-1.8-1.5-3.3-3.3-3.3h-11.3c-1.8,0-3.3,1.5-3.3,3.3v45c0,1.8,1.5,3.3,3.3,3.3h11.3c1.8,0,3.3-1.5,3.3-3.3v-15.8h26.9v15.8c0,1.8,1.5,3.3,3.3,3.3h11.3c1.8,0,3.3-1.5,3.3-3.3v-45c0-1.8-1.5-3.3-3.3-3.3h-11.3Z"/>
      <path class="st1" d="M162.6,103.6c1.8,0,3.3-1.5,3.3-3.3v-45c0-1.8-1.5-3.3-3.3-3.3h-11.3c-1.8,0-3.3,1.5-3.3,3.3v45c0,1.8,1.5,3.3,3.3,3.3h11.3Z"/>
      <path class="st1" d="M196.1,89.8v-34.5c0-1.8-1.5-3.3-3.3-3.3h-11.3c-1.8,0-3.3,1.5-3.3,3.3v45c0,1.8,1.5,3.3,3.3,3.3h44.3c1.8,0,3.3-1.5,3.3-3.3v-7.2c0-1.8-1.5-3.3-3.3-3.3h-29.6Z"/>
      <path class="st1" d="M252,103.6c1.8,0,3.3-1.5,3.3-3.3v-45c0-1.8-1.5-3.3-3.3-3.3h-11.3c-1.8,0-3.3,1.5-3.3,3.3v45c0,1.8,1.5,3.3,3.3,3.3h11.3Z"/>
      <path class="st1" d="M326.2,52h-32.7c-1.8,0-3.3,1.5-3.3,3.3v45c0,1.8,1.5,3.3,3.3,3.3h11.3c1.8,0,3.3-1.5,3.3-3.3v-11.1h18.1c14.7,0,23.3-6.1,23.3-18.7s-8.6-18.6-23.3-18.6ZM324.7,77.2h-16.6v-12.3h16.6c4.6,0,7.9,1.5,7.9,6.1s-3.3,6.2-7.9,6.2Z"/>
      <path class="st1" d="M374,103.6c1.8,0,3.3-1.5,3.3-3.3v-45c0-1.8-1.5-3.3-3.3-3.3h-11.3c-1.8,0-3.3,1.5-3.3,3.3v45c0,1.8,1.5,3.3,3.3,3.3h11.3Z"/>
      <path class="st1" d="M425.7,52h-32.7c-1.8,0-3.3,1.5-3.3,3.3v45c0,1.8,1.5,3.3,3.3,3.3h11.3c1.8,0,3.3-1.5,3.3-3.3v-11.1h18.1c14.7,0,23.3-6.1,23.3-18.7s-8.6-18.6-23.3-18.6ZM424.2,77.2h-16.6v-12.3h16.6c4.6,0,7.9,1.5,7.9,6.1s-3.3,6.2-7.9,6.2Z"/>
      <path class="st1" d="M474.3,90.7v-7.2h27.7c1.8,0,3.3-1.5,3.3-3.3v-5.4c0-1.8-1.5-3.3-3.3-3.3h-27.7v-6.6h34.8c1.8,0,3.3-1.5,3.3-3.3v-6.4c0-1.8-1.5-3.3-3.3-3.3h-49c-1.8,0-3.3,1.5-3.3,3.3v45c0,1.8,1.5,3.3,3.3,3.3h49.8c1.8,0,3.3-1.5,3.3-3.3v-6.4c0-1.8-1.5-3.3-3.3-3.3h-35.6Z"/>
      <path class="st1" d="M578.7,103.6c2.8,0,4.3-3.3,2.5-5.4l-9.8-11.4c7.7-2.6,11.6-8,11.6-16.5,0-12.3-9.6-18.2-23.3-18.2h-33.2c-1.8,0-3.3,1.5-3.3,3.3v45c0,1.8,1.5,3.3,3.3,3.3h11.2c1.8,0,3.3-1.5,3.3-3.3v-11.9h12l10.5,12.8c1.2,1.5,3.1,2.4,5,2.4h10.2ZM541,76.4v-11.5h17.2c4.6,0,7.9,1.3,7.9,5.8s-3.3,5.8-7.9,5.8h-17.2Z"/>
    </g>
  </g>
  <g class="st3">
    <g>
      <path class="st1" d="M708.4,55.2c1.9,1,4.3.4,5.3-1.4,1-1.8.4-4.1-1.4-5.1-2.2-1.3-4.4-2.5-6.7-3.6-2.1-1-3.1-3.4-2.4-5.6,3.6-11.5,4.3-23.9,2.1-35.7-.6-3.1-4.4-4.1-6.4-1.6-.6.7-1.1,1.4-1.6,2.1-.5.7-.8,1.5-.8,2.3-.6,10.8-3.5,21-8.4,30.1-.8,1.5-2.5,2.3-4.3,2.1-3.9-.5-7.8-.7-11.8-.5-1.1,0-2,.8-2.4,1.8-.6,1.7.5,3.7,2.3,3.9,12.7,1.7,25.1,5.5,36.5,11.2Z"/>
      <path class="st2" d="M665.7,102.2c-1.5,2.3-.5,5.5,2.2,6.3,9.9,2.9,19.9,4.6,29.9,5.3,4.3.3,8.4-1.9,10.7-5.6,2.8-4.7,5.4-9.5,7.8-14.4,1.7-3.5,3.3-7,4.8-10.6,1.8-4.3.4-9.2-3.5-11.7-18.3-12.3-39.6-19.1-61.9-19.8-5-.2-9.2,3.6-10.2,8.6-.3,1.3-.5,2.6-.8,3.9,0,0,0,.1,0,.2h0c0,.1,0,.3,0,.4,0,.4-.2.8-.3,1.2-.5,2.3-1.1,4.6-1.8,6.9-1.7,6.2-3.7,12.2-5.9,18.1-.7,1.9,0,4.2,1.8,5.2,3,1.7,6.1,3.3,9.3,4.8,2.1,1,4.5,0,5.4-2,1.4-3.2,2.8-6.4,4-9.7,1.8-4.7,3.3-9.4,4.7-14.2.8-2.7,1.5-5.4,2.1-8.2.3-1.1,1.3-1.9,2.4-1.9.2,0,.5,0,.7,0,4.8.3,8.5.5,13.1,2.9,1.3.7,1.9,2.3,1.3,3.7-4.3,11.1-9.4,21-15.8,30.7Z"/>
      <path class="st1" d="M641.5,112.1c2.3,1.1,3.1,3.9,1.8,6-4.2,6.7-8.9,13.1-13.9,19.1-1.4,1.7.8,4.1,2.5,2.7,7.2-6.2,13.9-13,20.2-20.1,1.2-1.4,3.1-1.8,4.8-1.2,10.5,3.8,21.3,6.2,32.1,7.3,2.8.3,4.2,3.6,2.4,5.7-8.1,9.3-17.1,17.7-26.8,25.3-4,3.1-9.1,4.5-14.1,3.7-14.4-2.3-28.3-7.3-40.9-14.5-2.2-1.3-2.7-4.3-1-6.3.8-1,1.7-2,2.5-3.1,6.6-8.4,12.6-17.3,17.7-26.6,1.2-2.1,3.9-2.9,6-1.7,2.3,1.3,4.6,2.5,6.9,3.7Z"/>
      <path class="st1" d="M600.5,155.1c-1.7-1.1-3.9-.9-5.4.4-7.8,7.2-16.1,13.7-25,19.5-4.9,3.2-9.9,6.1-15,8.9-4.9,2.6-3.5,10.2,2,10.1,19.8-.6,39.4-4.2,58.1-10.8,4.2-1.5,8.3-3.1,12.4-4.9,2.5-1.1,4.9-2.2,7.3-3.4,2-1,1.6-3.9-.5-4.5-12.1-3.3-23.6-8.5-34-15.4Z"/>
    </g>
  </g>
</svg>