<?xml version="1.0" encoding="UTF-8"?>
<svg id="katman_1" data-name="katman 1" xmlns="http://www.w3.org/2000/svg" viewBox="0 0 1448.19 271.7">
  <defs>
    <style>
      .cls-1 {
        fill-rule: evenodd;
      }

      .cls-1, .cls-2, .cls-3 {
        stroke-width: 0px;
      }

      .cls-1, .cls-3 {
        fill: #014486;
      }

      .cls-2 {
        fill: #0d9dda;
      }
    </style>
  </defs>
  <path class="cls-2" d="M164.5,29.7c12.8-13,30.5-21.1,50.1-21.1,26.1,0,48.9,14.3,61,35.5,10.5-4.6,22.2-7.2,34.5-7.2,47.1,0,85.2,37.8,85.2,84.4s-38.2,84.4-85.2,84.4c-5.8,0-11.4-.6-16.8-1.6-10.7,18.7-31,31.3-54.4,31.3-9.8,0-19-2.2-27.2-6.2-10.8,25-36,42.5-65.4,42.5s-56.7-19-66.7-45.7c-4.4.9-8.9,1.4-13.6,1.4C29.6,227.4,0,198.1,0,161.9c0-24.2,13.3-45.4,33-56.7-4.1-9.2-6.3-19.3-6.3-29.9C26.7,33.7,61.1,0,103.5,0c24.9,0,47,11.7,61,29.7Z"/>
  <path class="cls-3" d="M457.4,180.8c-.8,2.2.3,2.6.6,3,2.5,1.8,5,3.1,7.5,4.5,13.4,7.1,26.1,9.2,39.4,9.2,27,0,43.8-14.4,43.8-37.5v-.4c0-21.4-18.9-29.2-36.7-34.8l-2.3-.7c-13.4-4.4-25-8.1-25-16.9v-.4c0-7.5,6.8-13.1,17.2-13.1,11.7,0,25.4,3.9,34.3,8.8,0,0,2.6,1.7,3.6-.8.5-1.4,5-13.5,5.5-14.8.5-1.4-.4-2.5-1.3-3-10.2-6.2-24.2-10.4-38.7-10.4h-2.7c-24.7,0-42,14.9-42,36.3v.4c0,22.5,19.1,29.9,36.8,35l2.9.9c13,4,24.2,7.4,24.2,16.5v.4c0,8.4-7.3,14.6-19,14.6-4.5,0-19.1-.1-34.8-10-1.9-1.1-3-1.9-4.4-2.8-.8-.5-2.7-1.3-3.5,1.2l-5.3,14.8h-.1Z"/>
  <path class="cls-3" d="M852.6,180.8c-.8,2.2.3,2.6.6,3,2.5,1.8,5,3.1,7.5,4.5,13.4,7.1,26.1,9.2,39.4,9.2,27,0,43.8-14.4,43.8-37.5v-.4c0-21.4-18.9-29.2-36.7-34.8l-2.3-.7c-13.4-4.4-25-8.1-25-16.9v-.4c0-7.5,6.8-13.1,17.2-13.1,11.6,0,25.4,3.9,34.3,8.8,0,0,2.6,1.7,3.6-.8.5-1.4,5-13.5,5.5-14.8.5-1.4-.4-2.5-1.3-3-10.2-6.2-24.2-10.4-38.7-10.4h-2.7c-24.7,0-42,14.9-42,36.3v.4c0,22.5,19.1,29.9,36.8,35l2.9.9c13,4,24.2,7.4,24.2,16.5v.4c0,8.4-7.3,14.6-19,14.6-4.5,0-19.1-.1-34.8-10-1.9-1.1-3-1.9-4.4-2.8-.5-.3-2.8-1.2-3.5,1.2l-5.3,14.8h-.1Z"/>
  <path class="cls-3" d="M1144.9,111.3c-2.2-7.5-5.7-14.1-10.3-19.6-4.6-5.5-10.4-10-17.3-13.2s-15-4.8-24.1-4.8-17.3,1.6-24.2,4.8c-6.9,3.2-12.7,7.6-17.3,13.2-4.6,5.5-8,12.1-10.3,19.6-2.2,7.4-3.3,15.6-3.3,24.2s1.1,16.8,3.3,24.2c2.2,7.5,5.7,14.1,10.3,19.6,4.6,5.5,10.4,9.9,17.3,13.1,6.9,3.1,15,4.7,24.2,4.7s17.3-1.6,24.1-4.7c6.9-3.1,12.7-7.5,17.3-13.1,4.6-5.5,8-12.1,10.3-19.6,2.2-7.4,3.3-15.6,3.3-24.2.1-8.6-1.1-16.7-3.3-24.2ZM1122.4,135.6c0,13.1-2.4,23.4-7.2,30.7-4.7,7.2-11.9,10.7-22,10.7s-17.2-3.5-21.9-10.7c-4.7-7.3-7.1-17.6-7.1-30.7s2.4-23.3,7.1-30.5,11.8-10.6,21.9-10.6,17.2,3.5,22,10.6c4.8,7.2,7.2,17.4,7.2,30.5Z"/>
  <path class="cls-1" d="M1329.9,173.4c-.7-2.2-2.9-1.4-2.9-1.4-3.3,1.3-6.8,2.4-10.5,3-3.8.6-7.9.9-12.3.9-10.9,0-19.6-3.2-25.8-9.7-6.2-6.4-9.7-16.8-9.7-30.8,0-12.8,3.1-22.3,8.7-29.7,5.5-7.3,13.9-11,25-11,9.3,0,16.4,1.1,23.8,3.4,0,0,1.7.8,2.6-1.5,2-5.5,3.4-9.4,5.6-15.4.6-1.7-.9-2.5-1.4-2.7-2.9-1.2-9.8-3-15-3.8-4.9-.7-10.5-1.1-16.9-1.1-9.5,0-17.9,1.6-25.1,4.8s-13.3,7.6-18.1,13.2c-4.8,5.5-8.5,12.1-11,19.6-2.5,7.4-3.7,15.6-3.7,24.3,0,18.7,5,33.8,15,44.9,10,11.1,25,16.7,44.5,16.7,11.5,0,23.4-2.3,31.9-5.7,0,0,1.6-.8.9-2.7l-5.6-15.3h0Z"/>
  <path class="cls-1" d="M1445.2,107.1c-1.9-7.2-6.6-14.5-9.8-17.8-4.9-5.3-9.7-9-14.5-11-6.2-2.7-13.7-4.4-21.9-4.4-9.5,0-18.2,1.6-25.2,4.9-7,3.3-12.9,7.8-17.6,13.4-4.6,5.6-8.1,12.2-10.4,19.8-2.2,7.5-3.3,15.7-3.3,24.3s1.2,17,3.4,24.4c2.3,7.4,6,14,11.1,19.4,5,5.5,11.5,9.7,19.2,12.7,7.7,2.9,17,4.5,27.7,4.5,22,0,33.7-5,38.4-7.6.9-.5,1.6-1.3.6-3.6l-5-14c-.8-2.1-2.9-1.4-2.9-1.4-5.5,2-13.2,5.7-31.3,5.7-11.8,0-20.6-3.5-26.1-9s-8.4-13.8-8.8-25.4h76.2s2,0,2.2-1.9c.4-1,2.9-15.9-2-33h0ZM1369.4,123c1.1-7.3,3.1-13.3,6.1-18,4.7-7.2,11.8-11.1,21.8-11.1s16.6,3.9,21.4,11.1c3.1,4.7,4.5,11,5,18h-54.3Z"/>
  <path class="cls-1" d="M834.3,107.1c-1.9-7.2-6.6-14.5-9.8-17.8-4.9-5.3-9.7-9-14.5-11-6.2-2.7-13.7-4.4-21.9-4.4-9.5,0-18.2,1.6-25.2,4.9-7,3.3-12.9,7.8-17.6,13.4-4.6,5.6-8.1,12.2-10.3,19.8-2.2,7.5-3.3,15.7-3.3,24.3s1.2,17,3.5,24.4,6,14,11,19.4c5,5.5,11.5,9.7,19.2,12.7,7.7,2.9,17,4.5,27.7,4.5,22,0,33.7-5,38.4-7.6.8-.5,1.6-1.3.6-3.6l-5-14c-.8-2.1-2.9-1.4-2.9-1.4-5.5,2-13.2,5.7-31.3,5.7-11.8,0-20.6-3.5-26.1-9s-8.4-13.8-8.8-25.4h76.3s2,0,2.2-1.9c.2-1,2.7-15.9-2.2-33ZM758.5,123c1.1-7.3,3-13.3,6.1-18,4.7-7.2,11.8-11.1,21.8-11.1s16.6,3.9,21.4,11.1c3.1,4.7,4.5,11,5,18h-54.3Z"/>
  <path class="cls-3" d="M623.9,119.4c-3.1-.2-7.1-.3-11.9-.3-6.5,0-12.9.8-18.8,2.4-5.9,1.6-11.3,4.1-15.9,7.4-4.6,3.3-8.4,7.5-11.1,12.6-2.7,5-4.1,10.9-4.1,17.6s1.2,12.6,3.5,17.4c2.3,4.8,5.7,8.8,10,11.9,4.3,3.1,9.5,5.4,15.5,6.7,6,1.4,12.8,2.1,20.2,2.1,7.8,0,15.6-.7,23.2-1.9,7.5-1.3,16.7-3.1,19.2-3.7,2.6-.6,5.4-1.4,5.4-1.4,1.9-.5,1.7-2.5,1.7-2.5v-69.8c0-15.3-4.1-26.6-12.2-33.7-8-7-19.8-10.5-35.1-10.5-5.7,0-14.9.8-20.5,1.9,0,0-16.6,3.2-23.5,8.6,0,0-1.5.9-.7,3l5.4,14.5c.7,1.9,2.5,1.3,2.5,1.3,0,0,.6-.2,1.3-.6,14.7-8,33.2-7.7,33.2-7.7,8.2,0,14.6,1.6,18.9,4.9,4.2,3.2,6.3,8,6.3,18.2v3.2c-6.4-1-12.4-1.5-12.5-1.6h0ZM593.6,173c-3-2.4-3.4-3-4.4-4.5-1.5-2.3-2.3-5.7-2.3-9.9,0-6.7,2.2-11.5,6.8-14.7,0,0,6.6-5.7,22.1-5.5,10.9.1,20.7,1.7,20.7,1.7v34.7s-9.7,2.1-20.6,2.8c-15.5.8-22.3-4.6-22.3-4.6h0Z"/>
  <path class="cls-1" d="M1239.2,80c.6-1.7-.6-2.6-1.2-2.8-1.3-.5-7.8-1.8-12.8-2.2-9.6-.6-14.9,1-19.7,3.1-4.7,2.1-10,5.6-12.9,9.5v-9.3c0-1.3-.9-2.3-2.2-2.3h-19.5c-1.3,0-2.2,1-2.2,2.3v113.8c0,1.3,1,2.3,2.3,2.3h20.1c1.3,0,2.3-1,2.3-2.3v-56.8c0-7.6.9-15.2,2.5-20,1.6-4.7,3.9-8.5,6.7-11.2,2.8-2.7,5.9-4.6,9.4-5.7,3.5-1.1,7.4-1.5,10.3-1.5,4,0,8.4,1,8.4,1,1.4.1,2.3-.7,2.8-2.1,1.3-3.2,5-13.7,5.7-15.8h0Z"/>
  <path class="cls-1" d="M1051.1,27.3c-2.4-.8-4.6-1.3-7.5-1.8s-6.4-.8-10.3-.8c-13.8,0-24.7,3.9-32.3,11.6-7.6,7.6-12.8,19.3-15.3,34.6l-.9,5.2h-17.3s-2.1-.1-2.6,2.2l-2.9,15.9c-.2,1.5.4,2.5,2.5,2.5h16.8l-17.1,95.5c-1.4,7.7-2.9,14-4.5,18.8-1.7,4.7-3.3,8.3-5.3,10.8-1.9,2.5-3.8,4.3-7,5.4-2.6.9-5.7,1.3-9,1.3-1.8,0-4.3-.3-6.1-.7-1.8-.3-2.8-.8-4.1-1.4,0,0-2-.8-2.8,1.2-.6,1.6-5.1,14-5.7,15.5-.5,1.5.2,2.7,1.2,3,2.2.8,3.9,1.3,7,2,4.3,1,7.8,1.1,11.2,1.1,7,0,13.4-1,18.7-2.9,5.4-1.9,10-5.3,14.1-9.8,4.4-4.9,7.3-10.1,9.9-17.1,2.7-7,4.9-15.6,6.7-25.6l17.2-97.2h25.1s2.1.1,2.6-2.2l2.9-15.9c.2-1.5-.4-2.5-2.5-2.5h-24.6c.1-.5,1.2-9.1,4-17.2,1.2-3.4,3.4-6.2,5.4-8.1,1.9-1.9,4-3.2,6.4-4s5.2-1.2,8.2-1.2c2.3,0,4.5.3,6.3.6,2.4.5,3.3.8,3.9,1,2.5.8,2.8,0,3.3-1.2l5.9-16c.5-1.6-1-2.3-1.5-2.6h0Z"/>
  <path class="cls-1" d="M710.3,192.3c0,1.3-.9,2.3-2.2,2.3h-20.2c-1.3,0-2.2-1-2.2-2.3V29.5c0-1.3.9-2.3,2.2-2.3h20.2c1.3,0,2.2,1,2.2,2.3v162.8Z"/>
</svg>